<svg height="512pt" viewBox="0 -36 512 512" width="512pt" xmlns="http://www.w3.org/2000/svg"><path d="m0 180.761719v75.238281h83.800781l-20.015625-213.035156c-39.019531 33.15625-63.785156 82.582031-63.785156 137.796875zm0 0" fill="#9d7123"/><path d="m448.214844 42.964844s-20.015625 213.039062-20.015625 213.035156h83.800781v-75.238281c0-55.214844-24.765625-104.640625-63.785156-137.796875zm0 0" fill="#4c250b"/><path d="m331.238281 0h-75.238281l-20.015625 218.113281 20.015625 222.472657h7.632812c101.9375 0 184.578126-82.636719 184.582032-184.574219v-213.046875c-31.527344-26.792969-72.359375-42.964844-116.976563-42.964844zm0 0" fill="#9d7123"/><path d="m180.761719 0c-44.617188 0-85.449219 16.171875-116.976563 42.964844v213.035156c0 101.941406 82.640625 184.582031 184.582032 184.582031h7.632812v-440.582031zm0 0" fill="#dbad5c"/><path d="m271 355.609375v-58.792969h-30v58.792969h-32.839844v30h95.679688v-30zm0 0" fill="#4c250b"/><path d="m271.886719 218.113281h-15.886719l-20.015625 47.25 20.015625 47.25h15.886719c26.09375 0 47.25-21.15625 47.25-47.25 0-26.097656-21.15625-47.25-47.25-47.25zm0 0" fill="#04303e"/><path d="m240.113281 218.113281c-26.09375 0-47.25 21.152344-47.25 47.25 0 26.09375 21.15625 47.246094 47.25 47.246094h15.886719v-94.496094zm0 0" fill="#07485e"/><path d="m168.339844 154.183594h31.894531v30h-31.894531zm0 0" fill="#07485e"/><path d="m311.765625 154.183594h31.894531v30h-31.894531zm0 0" fill="#04303e"/></svg>