<svg height="511pt" viewBox="0 -33 511.99981 511" width="511pt" xmlns="http://www.w3.org/2000/svg"><path d="m116.1875 42.507812c-26.078125-16.199218-56.207031-13.609374-76.800781 9.820313-9.992188 11.371094-16.597657 25.554687-20.398438 40.121094-4.921875 18.855469-1.902343 29.175781-4.761719 48.675781-2.792968 19.058594-14.699218 36.003906-14.210937 55.636719.75 30.339843 37.46875 36.964843 61.25 39.632812zm0 0" fill="#cc8476"/><path d="m30.917969 212.636719c-.484375-21.527344 11.421875-40.105469 14.214843-61.003907 2.859376-21.382812-.160156-32.695312 4.761719-53.371093 3.800781-15.96875 10.40625-31.523438 20.398438-43.992188 8.082031-10.082031 17.636719-16.628906 27.835937-19.808593-21.089844-5.925782-42.78125-.292969-58.742187 17.867187-9.992188 11.371094-16.597657 25.554687-20.398438 40.121094-4.921875 18.855469-1.902343 29.175781-4.761719 48.675781-2.792968 19.058594-14.699218 36.003906-14.210937 55.636719.515625 20.9375 18.167969 30.578125 36.867187 35.421875-3.566406-5.25-5.785156-11.660156-5.964843-19.546875zm0 0" fill="#cd654e"/><path d="m326.277344 42.507812c26.074218-16.199218 56.207031-13.609374 76.796875 9.820313 9.992187 11.371094 16.597656 25.554687 20.398437 40.121094 4.925782 18.855469 1.902344 29.175781 4.761719 48.675781 2.792969 19.058594 14.699219 36.003906 14.214844 55.636719-.753907 30.339843-37.472657 36.964843-61.253907 39.632812zm0 0" fill="#cc8476"/><path d="m381.199219 236.394531c9.183593-1.03125 20.296875-2.660156 30.523437-6.007812-1.949218-23.125-6.78125-44.375-10.707031-61.613281-.789063-3.476563-1.550781-6.820313-2.25-10.019532-1.644531-7.515625-3.109375-15.699218-4.660156-24.363281-5.917969-33.054687-12.601563-70.347656-34.101563-102.1875-11.289062.078125-22.859375 3.550781-33.726562 10.304687zm0 0" fill="#cd654e"/><path d="m368.574219 165.359375c-14.425781-65.941406-13.394531-164.859375-147.34375-164.859375-133.945313 0-132.917969 98.917969-147.339844 164.859375-11.269531 51.519531-38.261719 140.773437 46.765625 199.464844 60.378906 41.675781 140.769531 41.675781 201.152344 0 85.027344-58.691407 58.035156-147.945313 46.765625-199.464844zm0 0" fill="#e5e8ec"/><path d="m151.5625 364.820312c-85.027344-58.691406-58.039062-147.941406-46.769531-199.460937 13.847656-63.296875 13.476562-156.960937 131.890625-164.375-4.949219-.308594-10.078125-.484375-15.453125-.484375-133.945313 0-132.917969 98.917969-147.339844 164.859375-11.269531 51.519531-38.261719 140.773437 46.765625 199.464844 34.613281 23.890625 75.800781 34.078125 116.027344 30.578125-29.945313-2.605469-59.355469-12.792969-85.121094-30.582032zm0 0" fill="#dadadc"/><g fill="#2d3c50"><path d="m138.410156 244.933594c4.265625 0 7.726563-3.460938 7.726563-7.726563v-14.988281c0-4.269531-3.460938-7.726562-7.726563-7.726562-4.269531 0-7.726562 3.457031-7.726562 7.726562v14.988281c0 4.265625 3.457031 7.726563 7.726562 7.726563zm0 0"/><path d="m304.054688 244.933594c4.265624 0 7.722656-3.460938 7.722656-7.726563v-14.988281c0-4.269531-3.457032-7.726562-7.722656-7.726562-4.269532 0-7.726563 3.457031-7.726563 7.726562v14.988281c0 4.265625 3.457031 7.726563 7.726563 7.726563zm0 0"/><path d="m262.96875 269.820312c-3.214844-2.808593-8.09375-2.484374-10.902344.730469-3.039062 3.476563-7.597656 5.46875-12.511718 5.46875-3.96875 0-7.707032-1.300781-10.597657-3.632812v-15.898438c4.554688-.667969 8.90625-1.90625 12.957031-3.652343 6.601563-2.84375 4.585938-12.683594-2.597656-12.683594h-36.171875c-7.1875 0-9.199219 9.839844-2.597656 12.683594 4.046875 1.746093 8.398437 2.984374 12.957031 3.652343v15.867188c-2.894531 2.339843-6.625 3.664062-10.601562 3.664062-4.910156 0-9.472656-1.992187-12.507813-5.46875-2.808593-3.210937-7.691406-3.539062-10.902343-.730469-3.210938 2.808594-3.542969 7.6875-.730469 10.902344 5.96875 6.832032 14.769531 10.75 24.140625 10.75 6.671875 0 13.050781-1.996094 18.328125-5.601562 5.277343 3.605468 11.652343 5.601562 18.324219 5.601562 9.375 0 18.171874-3.917968 24.144531-10.75 2.808593-3.214844 2.480469-8.09375-.730469-10.902344zm0 0"/></g><path d="m145.621094 264.199219h-25.019532c-4.265624 0-7.722656 3.457031-7.722656 7.722656 0 4.269531 3.457032 7.726563 7.722656 7.726563h25.019532c4.265625 0 7.726562-3.457032 7.726562-7.726563 0-4.265625-3.460937-7.722656-7.726562-7.722656zm0 0" fill="#ff8892"/><path d="m321.859375 264.199219h-25.019531c-4.265625 0-7.726563 3.457031-7.726563 7.722656 0 4.269531 3.460938 7.726563 7.726563 7.726563h25.019531c4.265625 0 7.726563-3.457032 7.726563-7.726563 0-4.265625-3.460938-7.722656-7.726563-7.722656zm0 0" fill="#ff8892"/><path d="m414.144531 308.953125c-67.660156-66.121094-179.734375 40.808594-3.324219 135.320313 2.074219 1.109374 4.574219 1.109374 6.648438 0 176.410156-94.511719 64.335938-201.441407-3.324219-135.320313zm0 0" fill="#ff8892"/><path d="m388.976562 292.503906c-64.40625-24.523437-132.847656 67.074219 18.621094 150.015625-90.667968-65.265625-64.058594-137.375-18.621094-150.015625zm0 0" fill="#ff5754"/></svg>