<svg height="464pt" viewBox="0 0 464 464" width="464pt" xmlns="http://www.w3.org/2000/svg"><path d="m328 10.835938c8.777344-9.953126 22.789062-13.457032 35.21875-8.804688s20.695312 16.492188 20.78125 29.761719c0 40-56 64-56 64s-56-24-56-64c.085938-13.269531 8.351562-25.109375 20.78125-29.761719s26.441406-1.148438 35.21875 8.804688zm0 0" fill="#fd412d"/><path d="m281.601562 8.996094c-6.128906 6.003906-9.585937 14.21875-9.601562 22.796875 0 40 56 64 56 64 5.808594-2.636719 11.421875-5.683594 16.800781-9.117188-24.800781-16-56-42.640625-63.199219-77.679687zm0 0" fill="#d6332b"/><path d="m408 143.792969c-17.671875 0-32 14.328125-32 32v43.363281c-15.6875-4.484375-32.3125-4.484375-48 0v-43.363281c0-17.671875-14.328125-32-32-32s-32 14.328125-32 32v144c0 48.601562 39.398438 88 88 88s88-39.398438 88-88v-144c0-17.671875-14.328125-32-32-32zm0 0" fill="#70dda8"/><path d="m412.320312 383.792969c-33.808593 32.105469-86.832031 32.105469-120.640624 0-31.414063 14.238281-51.617188 45.511719-51.679688 80h224c-.0625-34.488281-20.265625-65.761719-51.679688-80zm0 0" fill="#70dda8"/><path d="m288 301.15625v-156.242188c-14.089844 3.640626-23.953125 16.328126-24 30.878907v144c-.003906 45.015625 33.957031 82.773437 78.71875 87.523437-34.324219-24.464844-54.707031-64.011718-54.71875-106.160156zm0 0" fill="#40bf7c"/><path d="m412.320312 383.792969c-33.808593 32.105469-86.832031 32.105469-120.640624 0-9.925782 4.527343-18.929688 10.84375-26.558594 18.640625 22.578125 23.898437 54 37.441406 86.878906 37.441406s64.300781-13.542969 86.878906-37.441406c-7.628906-7.796875-16.632812-14.113282-26.558594-18.640625zm0 0" fill="#40bf7c"/><path d="m305.761719 394.59375c-5.046875-3.117188-9.765625-6.734375-14.082031-10.800781-31.414063 14.238281-51.617188 45.511719-51.679688 80h32c.03125-27.023438 12.476562-52.539063 33.761719-69.199219zm0 0" fill="#40bf7c"/><g fill="#2b8955"><path d="m320 271.792969c0 4.421875-3.582031 8-8 8s-8-3.578125-8-8c0-4.417969 3.582031-8 8-8s8 3.582031 8 8zm0 0"/><path d="m400 271.792969c0 4.421875-3.582031 8-8 8s-8-3.578125-8-8c0-4.417969 3.582031-8 8-8s8 3.582031 8 8zm0 0"/><path d="m384 319.792969c-4.417969 0-8 3.582031-8 8 0 4.421875-3.582031 8-8 8s-8-3.578125-8-8c0-4.417969-3.582031-8-8-8s-8 3.582031-8 8c0 4.421875-3.582031 8-8 8s-8-3.578125-8-8c0-4.417969-3.582031-8-8-8s-8 3.582031-8 8c0 13.257812 10.746094 24 24 24 5.921875-.035157 11.617188-2.257813 16-6.238281 4.382812 3.980468 10.078125 6.203124 16 6.238281 13.253906 0 24-10.742188 24-24 0-4.417969-3.582031-8-8-8zm0 0"/><path d="m304 175.792969c0-4.417969-3.582031-8-8-8s-8 3.582031-8 8v40c0 4.421875 3.582031 8 8 8s8-3.578125 8-8zm0 0"/><path d="m408 175.792969c-4.417969 0-8 3.582031-8 8v32c0 4.421875 3.582031 8 8 8s8-3.578125 8-8v-32c0-4.417969-3.582031-8-8-8zm0 0"/></g><path d="m80 279.792969h64v56h-64zm0 0" fill="#faa108"/><path d="m40 159.792969h144v80c0 39.765625-32.234375 72-72 72s-72-32.234375-72-72zm0 0" fill="#f9c170"/><path d="m144 75.792969h-64c-2.71875 0-5.359375 0-8 .402343v-.402343h-72v84c1.40625 27.113281 16.46875 51.664062 40 65.203125v-65.203125h144v65.203125c31.269531-18.140625 46.492188-55 37.128906-89.917969-9.359375-34.917969-40.976562-59.21875-77.128906-59.285156zm0 0" fill="#fd412d"/><path d="m96 311.792969h40c35.347656 0 64 28.65625 64 64v88h-176v-80c0-39.761719 32.234375-72 72-72zm0 0" fill="#fd412d"/><path d="m88 199.792969c0 4.421875-3.582031 8-8 8s-8-3.578125-8-8c0-4.417969 3.582031-8 8-8s8 3.582031 8 8zm0 0" fill="#2b8955"/><path d="m152 199.792969c0 4.421875-3.582031 8-8 8s-8-3.578125-8-8c0-4.417969 3.582031-8 8-8s8 3.582031 8 8zm0 0" fill="#2b8955"/><path d="m128 239.792969c-4.417969 0-8 3.582031-8 8 0 4.421875-3.582031 8-8 8s-8-3.578125-8-8c0-4.417969-3.582031-8-8-8s-8 3.582031-8 8c0 13.257812 10.746094 24 24 24s24-10.742188 24-24c0-4.417969-3.582031-8-8-8zm0 0" fill="#fd412d"/><path d="m72 463.792969v-80c0-4.417969-3.582031-8-8-8s-8 3.582031-8 8v80" fill="#d6332b"/><path d="m168 463.792969v-80c0-4.417969-3.582031-8-8-8s-8 3.582031-8 8v80" fill="#d6332b"/><path d="m8.398438 75.792969h-8.398438v84c1.40625 27.113281 16.46875 51.664062 40 65.203125v-52.722656c-18.695312-28.886719-29.582031-62.128907-31.601562-96.480469zm0 0" fill="#d6332b"/><path d="m184 183.792969v-24h-144v80c0 39.765625 32.234375 72 72 72 4.972656-.015625 9.929688-.527344 14.800781-1.519531-35.894531-4.621094-62.777343-35.167969-62.800781-71.359376v-55.121093zm0 0" fill="#faa108"/><path d="m104 439.792969c-30.929688 0-56-25.070313-56-56 0-39.761719 32.234375-72 72-72h-24c-39.765625 0-72 32.238281-72 72v80h176v-24zm0 0" fill="#d6332b"/></svg>