<svg height="511pt" viewBox="0 -32 511.99969 511" width="511pt" xmlns="http://www.w3.org/2000/svg"><path d="m149.359375 237.78125v-14.550781c0-4.140625-3.359375-7.5-7.5-7.5-4.144531 0-7.5 3.359375-7.5 7.5v14.550781c0 4.140625 3.355469 7.5 7.5 7.5 4.140625 0 7.5-3.359375 7.5-7.5zm0 0"/><path d="m302.65625 245.28125c4.140625 0 7.5-3.359375 7.5-7.5v-14.550781c0-4.140625-3.359375-7.5-7.5-7.5-4.144531 0-7.5 3.359375-7.5 7.5v14.550781c0 4.140625 3.355469 7.5 7.5 7.5zm0 0"/><path d="m204.46875 275.457031c-4.769531 0-9.195312-1.933593-12.144531-5.304687-2.726563-3.121094-7.464844-3.4375-10.582031-.710938-3.121094 2.726563-3.4375 7.464844-.710938 10.582032 5.796875 6.632812 14.335938 10.4375 23.4375 10.4375 6.476562 0 12.664062-1.9375 17.789062-5.441407 5.125 3.503907 11.3125 5.441407 17.789063 5.441407 9.097656 0 17.640625-3.804688 23.4375-10.4375 2.726563-3.117188 2.40625-7.855469-.710937-10.582032-3.121094-2.726562-7.855469-2.410156-10.582032.710938-2.949218 3.371094-7.375 5.304687-12.144531 5.304687-3.855469 0-7.484375-1.261719-10.289063-3.523437v-15.433594c4.421876-.648438 8.648438-1.851562 12.578126-3.546875 6.40625-2.757813 4.453124-12.3125-2.523438-12.3125h-35.113281c-6.972657 0-8.925781 9.554687-2.519531 12.3125 3.929687 1.695313 8.152343 2.898437 12.578124 3.546875v15.402344c-2.8125 2.269531-6.429687 3.554687-10.289062 3.554687zm0 0"/><path d="m117.074219 271.484375c0 4.140625 3.355469 7.5 7.5 7.5h24.285156c4.140625 0 7.5-3.359375 7.5-7.5 0-4.144531-3.359375-7.5-7.5-7.5h-24.285156c-4.144531 0-7.5 3.355469-7.5 7.5zm0 0"/><path d="m288.152344 271.484375c0 4.140625 3.359375 7.5 7.503906 7.5h24.285156c4.140625 0 7.5-3.359375 7.5-7.5 0-4.144531-3.359375-7.5-7.5-7.5h-24.285156c-4.144531 0-7.503906 3.355469-7.503906 7.5zm0 0"/><path d="m472.527344 282.601562c-21.132813-6.347656-44.238282-.835937-63.003906 14.742188-8.335938-6.902344-17.558594-11.816406-27.070313-14.605469 2.667969-13.140625 3.394531-26.324219 2.933594-39.144531 20.089843-2.730469 58.273437-11.023438 59.113281-44.886719.304688-12.386719-3.71875-23.347656-7.605469-33.945312-5.011719-13.652344-7.316406-26.429688-7.664062-40.945313-.613281-25.472656-7.699219-50.976562-24.816407-70.457031-12.519531-14.246094-29.234374-22.089844-47.066406-22.089844-9.816406 0-19.878906 2.398438-29.417968 6.957031-23.464844-25.351562-58.179688-37.726562-105.671876-37.726562-9.65625 0-18.976562.539062-27.707031 1.597656-4.113281.5-7.039062 4.238282-6.539062 8.351563.5 4.109375 4.230469 7.042969 8.347656 6.539062 8.132813-.988281 16.84375-1.488281 25.898437-1.488281 45.613282 0 77.847657 12.164062 98.332032 37.136719 26.796875 32.777343 28.703125 77.359375 37.371094 117.003906 7.851562 35.886719 17.347656 73.363281 9.71875 110.488281-.304688-.015625-.609376-.011718-.914063-.023437-28.878906-1.261719-56.632813 20.265625-59.476563 49.65625-.851562 8.796875.460938 17.6875 3.136719 26.078125.269531.847656.550781 1.699218.855469 2.550781-26.527344 17.101563-57.195312 26.113281-89.023438 26.113281-33.585937 0-65.871093-10.035156-93.371093-29.015625-32.195313-22.222656-49.84375-50.808593-53.960938-87.394531-2-17.816406-.609375-35.847656 2.238281-53.492188.003907-.023437.007813-.050781.011719-.078124 2.445313-15.097657 6.101563-29.953126 9.375-44.886719 7.300781-33.265625 9.816407-68.507813 25.789063-99.210938 11.625-22.347656 31.601562-39.277343 55.484375-47.234375 3.929687-1.308594 6.054687-5.554687 4.746093-9.484375-1.3125-3.929687-5.558593-6.054687-9.488281-4.746093-20.039062 6.675781-35.046875 16.898437-46.476562 29.273437-9.546875-4.566406-19.613281-6.964844-29.4375-6.964844-17.832031 0-34.546875 7.84375-47.066407 22.089844-17.164062 19.53125-24.203124 44.945313-24.816406 70.453125-.144531 5.933594-.289062 12.066406-1.394531 19.609375-2.789063 19.011719-14.363281 35.566406-13.875 55.28125.835937 33.851563 38.984375 42.152344 59.082031 44.886719-.300781 8.582031-.074218 17.335937.921875 26.179687 4.5625 40.582031 24.867188 73.574219 60.34375 98.066407 30.015625 20.71875 65.253907 31.667968 101.894531 31.667968 34.015626 0 66.816407-9.445312 95.359376-27.371094 2.761718 4.929688 6.039062 9.847657 9.847656 14.714844 16.292968 20.8125 41.625 40.511719 75.292968 58.550782 4.203126 2.25 9.332032 2.25 13.539063 0 10.398437-5.574219 20.152344-11.402344 28.996094-17.320313 3.441406-2.308594 4.363281-6.964844 2.058593-10.40625-2.304687-3.441406-6.964843-4.363281-10.40625-2.058594-8.34375 5.589844-17.570312 11.101563-27.417968 16.390625-81.746094-43.886718-88.359375-84.222656-87.40625-99.542968.976562-15.664063 12.054687-29.640626 26.753906-34.84375 19.894531-7.050782 40.898438.992187 55.410156 15.175781 2.914063 2.847656 7.570313 2.847656 10.484375 0 15.625-15.269531 35.601563-21.183594 53.441407-15.828125 14.410156 4.332031 24.828124 15.289062 27.863281 29.316406 2.742187 12.660156 1.734375 38.789062-35.792969 71.585938-3.117188 2.726562-3.4375 7.464843-.710938 10.585937 2.726563 3.117187 7.464844 3.4375 10.582032.710937 43.324218-37.863281 44.023437-70.167968 40.585937-86.054687-4.210937-19.441406-18.492187-34.585937-38.210937-40.507813zm-79.382813-219.335937c14.863281 16.914063 20.554688 38.882813 21.085938 60.910156.390625 16.234375 2.988281 30.523438 8.578125 45.753907 3.566406 9.707031 6.929687 18.875 6.695312 28.40625-.402344 16.246093-14.414062 25.703124-45.171875 30.222656-1.820312-17.625-5.566406-34.96875-9.492187-52.222656-2.597656-11.414063-4.851563-22.871094-6.914063-34.394532-5.660156-31.605468-11.714843-64.664062-30.316406-91.613281 6.527344-2.667969 13.230469-4.058594 19.738281-4.058594 13.648438 0 26.027344 5.875 35.796875 16.996094zm-378.132812 135.070313c-.457031-18.382813 11.09375-34.8125 13.71875-52.734376 1.238281-8.449218 1.40625-15.34375 1.550781-21.425781.53125-21.953125 6.289062-44.074219 21.085938-60.910156 9.769531-11.117187 22.148437-16.996094 35.800781-16.996094 6.503906 0 13.210937 1.390625 19.738281 4.058594-23.628906 34.230469-26.382812 76.679687-35.007812 116.105469-1.203126 5.503906-13.601563 61.847656-11.75 62.121094-30.734376-4.523438-44.734376-13.976563-45.136719-30.21875zm0 0"/></svg>